<?xml version="1.0" encoding="UTF-8" standalone="no"?>
<svg
   version="1.0"
   width="1024.000000pt"
   height="1024.000000pt"
   viewBox="0 0 1024.000000 1024.000000"
   preserveAspectRatio="xMidYMid meet"
   id="svg2"
   sodipodi:docname="Ornam.svg"
   inkscape:version="1.3.2 (091e20e, 2023-11-25, custom)"
   xmlns:inkscape="http://www.inkscape.org/namespaces/inkscape"
   xmlns:sodipodi="http://sodipodi.sourceforge.net/DTD/sodipodi-0.dtd"
   xmlns="http://www.w3.org/2000/svg"
   xmlns:svg="http://www.w3.org/2000/svg">
  <defs
     id="defs2" />
  <sodipodi:namedview
     id="namedview2"
     pagecolor="#ffffff"
     bordercolor="#000000"
     borderopacity="0.25"
     inkscape:showpageshadow="2"
     inkscape:pageopacity="0.0"
     inkscape:pagecheckerboard="0"
     inkscape:deskcolor="#d1d1d1"
     inkscape:document-units="pt"
     inkscape:zoom="0.70710678"
     inkscape:cx="516.89505"
     inkscape:cy="580.53466"
     inkscape:window-width="1680"
     inkscape:window-height="987"
     inkscape:window-x="-8"
     inkscape:window-y="-8"
     inkscape:window-maximized="1"
     inkscape:current-layer="svg2" />
  <g
     transform="translate(0.000000,1024.000000) scale(0.100000,-0.100000)"
     fill="#000000"
     stroke="none"
     id="g2"
     style="fill:#e59500;fill-opacity:1">
    <path
       d="M1020 5120 l0 -4130 648 2 c509 2 647 6 648 16 1 6 2 305 3 662 l1 650 135 0 135 0 0 -444 0 -444 193 -6 c105 -3 388 -7 627 -8 409 -3 435 -2 434 15 -1 9 -2 69 -3 132 l-1 115 -487 2 -488 3 4 453 4 454 -412 -3 -411 -3 0 -653 0 -653 -380 0 -380 0 0 3851 0 3850 3819 -3 c2101 -2 3822 -6 3826 -10 4 -3 9 -176 12 -382 l6 -376 -551 0 -552 0 0 -395 0 -395 425 0 425 0 0 -622 0 -621 -430 6 -430 6 0 -294 0 -295 -716 0 -717 1 -91 -88 c-107 -103 -214 -191 -310 -256 l-70 -46 -32 92 c-17 51 -39 110 -49 131 l-17 40 28 20 c116 84 263 221 346 324 l27 32 665 0 666 0 0 285 0 285 445 0 445 0 0 380 0 380 -142 0 c-79 0 -275 3 -437 7 l-293 6 3 507 4 507 -185 6 c-102 4 -463 7 -803 7 l-618 0 42 -57 c23 -32 64 -93 91 -135 l50 -78 317 0 c175 0 433 -3 574 -7 l257 -6 0 -374 0 -373 -130 0 -130 0 0 255 0 255 -511 2 -512 3 -57 93 c-103 171 -209 302 -385 478 l-170 171 505 6 c278 3 1014 3 1637 0 l1133 -6 0 136 0 136 -532 3 c-293 2 -1902 4 -3575 6 l-3043 2 0 -1677 c0 -923 -3 -2543 -7 -3600 l-6 -1922 136 -3 137 -3 0 806 c0 443 3 1225 7 1737 l6 931 20 -27 c36 -48 210 -222 282 -281 97 -80 241 -173 346 -224 l88 -42 0 -542 1 -543 270 0 270 0 0 -125 0 -125 -202 0 c-112 0 -287 3 -390 7 l-188 6 0 577 0 577 -91 58 c-51 32 -112 74 -136 92 -25 19 -46 33 -46 31 -1 -2 -1 -362 1 -800 l2 -798 525 0 525 0 0 -453 0 -454 257 -6 c141 -4 307 -7 370 -7 l113 0 0 351 0 351 59 64 c189 202 386 536 426 721 l7 33 -379 0 -378 0 3 -625 4 -625 -111 0 -111 0 0 750 0 750 165 0 c91 0 165 2 165 5 0 3 -27 34 -61 68 -65 66 -162 204 -193 275 l-19 42 -159 0 -160 0 4 -227 3 -228 -127 -3 -128 -3 0 348 0 348 253 1 c138 1 283 6 320 11 l69 10 49 -104 c66 -142 124 -226 216 -314 122 -116 219 -173 398 -233 184 -62 417 -72 595 -27 352 90 638 408 728 809 27 121 24 427 -6 546 -57 228 -185 459 -336 605 l-45 44 89 23 c322 81 595 325 739 660 103 239 161 570 161 920 l0 164 360 0 360 0 0 -120 0 -120 -240 0 -240 0 0 -73 c0 -154 -64 -598 -100 -692 -6 -15 -9 -29 -8 -30 3 -2 842 12 844 14 1 1 2 115 3 254 0 138 3 253 6 255 3 1 259 2 570 2 l565 0 0 -110 0 -110 -445 0 -445 0 0 -296 0 -297 -598 8 -597 7 -67 -99 c-123 -181 -273 -322 -459 -429 l-79 -46 39 -56 c108 -159 180 -365 215 -614 l7 -46 82 45 c250 138 441 268 578 396 l72 67 798 0 799 0 0 285 0 285 424 0 424 0 4 878 c2 482 3 878 3 879 -1 1 -191 3 -423 3 l-422 1 0 135 0 134 555 0 555 0 0 655 0 655 -4100 0 -4100 0 0 -4130z m3330 3330 c425 -37 814 -205 1076 -465 197 -196 313 -416 376 -709 30 -143 30 -370 -1 -513 -89 -419 -347 -724 -698 -825 -106 -31 -363 -33 -463 -4 -144 42 -222 103 -261 206 -19 51 -25 110 -11 110 4 0 61 -14 127 -32 113 -30 130 -32 300 -32 172 -1 184 1 260 27 274 96 456 359 495 715 21 195 -17 399 -110 587 -173 349 -519 592 -965 677 -105 20 -148 21 -907 25 l-798 4 -2 -258 -3 -258 -228 -3 -228 -2 3 122 3 123 98 3 97 3 0 134 0 135 -223 0 -224 0 -6 -157 c-4 -87 -7 -265 -7 -395 l0 -238 360 0 360 0 0 -42 c0 -24 -3 -74 -7 -111 l-6 -69 -350 3 -350 4 -1 -705 c-1 -693 -1 -706 21 -790 52 -203 148 -367 308 -526 156 -154 311 -251 542 -335 77 -29 100 -33 188 -33 112 0 178 20 255 75 118 85 120 290 3 372 -79 56 -178 43 -246 -32 -63 -69 -74 -169 -27 -233 27 -37 16 -48 -45 -48 -50 0 -112 35 -141 78 -33 48 -49 153 -35 227 41 222 223 351 460 323 165 -19 310 -153 357 -332 20 -75 18 -192 -6 -267 -41 -132 -188 -307 -308 -367 -137 -68 -342 -81 -512 -32 -269 77 -604 317 -795 572 -128 169 -204 336 -241 525 -20 102 -20 95 -16 1711 l2 1062 1208 0 c719 0 1253 -4 1322 -10z m-615 -441 c46 -12 65 -32 65 -67 0 -38 -25 -81 -106 -177 -80 -96 -124 -166 -160 -254 l-22 -54 -25 50 c-38 74 -57 161 -57 256 0 73 4 92 28 137 15 29 39 61 53 72 58 44 145 58 224 37z m-505 -669 l0 -610 -455 0 -455 0 -1 75 c-1 41 -1 87 -2 103 l-1 27 355 2 354 2 3 506 2 505 100 0 100 0 0 -610z m1332 546 c378 -74 628 -363 628 -725 -1 -218 -74 -390 -224 -528 -73 -67 -179 -125 -271 -148 -74 -19 -233 -19 -302 -1 -134 36 -231 114 -290 234 -37 75 -38 78 -38 191 0 106 2 121 28 175 61 131 148 196 261 196 100 0 170 -55 197 -153 15 -55 -5 -130 -46 -175 -26 -29 -40 -35 -83 -40 -34 -3 -57 0 -67 8 -13 11 -15 7 -15 -26 0 -94 79 -149 204 -142 207 11 366 195 366 421 0 115 -50 225 -141 312 -72 69 -161 112 -271 131 -411 73 -788 -291 -788 -762 0 -307 146 -597 444 -881 58 -55 147 -132 198 -170 51 -38 145 -108 208 -155 350 -262 518 -477 597 -768 14 -51 18 -101 17 -235 -1 -155 -3 -178 -27 -258 -49 -158 -118 -270 -237 -380 -83 -76 -217 -148 -325 -173 -101 -23 -278 -20 -380 6 -258 66 -453 234 -530 457 -85 245 -38 462 139 639 61 61 100 90 160 120 76 37 85 39 193 43 93 3 124 -1 181 -18 126 -38 221 -125 259 -236 26 -76 23 -197 -6 -258 -55 -113 -184 -168 -271 -116 -51 31 -53 40 -15 79 74 76 81 152 18 220 -77 87 -209 78 -316 -20 -158 -144 -164 -356 -16 -514 100 -107 220 -156 384 -156 162 0 271 44 380 154 121 121 172 263 162 446 -9 165 -79 333 -203 488 -149 186 -290 276 -596 376 -268 88 -448 191 -688 391 -204 171 -327 247 -485 301 -68 23 -97 27 -195 28 -96 0 -124 -3 -171 -22 -120 -48 -185 -137 -177 -243 5 -66 24 -100 78 -136 61 -42 174 -24 220 35 37 46 97 23 101 -38 4 -83 -12 -123 -68 -169 -82 -68 -237 -80 -341 -27 -151 77 -226 210 -226 401 0 80 4 111 22 155 43 109 158 209 296 258 61 22 89 26 201 26 145 1 222 -14 362 -70 150 -61 306 -159 523 -330 191 -151 263 -201 358 -247 91 -44 115 -45 50 -2 -63 42 -226 210 -290 300 -227 320 -282 648 -173 1030 32 113 108 270 173 355 138 182 348 315 552 349 86 14 231 12 312 -3z m2216 -1097 l-3 -124 -119 -3 -119 -3 6 92 c4 51 7 109 7 130 l0 38 108 3 c59 2 111 0 115 -3 4 -3 6 -62 5 -130z m-2792 -3616 c-9 -23 -93 -163 -116 -193 l-20 -25 0 118 0 117 71 0 c62 0 70 -2 65 -17z"
       id="path1"
       style="fill:#e59500;fill-opacity:1" />
    <path
       d="M6700 5057 c-136 -60 -336 -185 -630 -393 -396 -282 -560 -434 -654 -605 -39 -71 -76 -198 -76 -261 l0 -38 -55 0 c-108 0 -229 -64 -373 -195 -91 -84 -151 -158 -337 -415 -82 -113 -223 -304 -314 -425 -91 -121 -167 -223 -169 -226 -5 -11 132 -68 213 -88 301 -77 639 -25 803 125 l46 41 60 -49 c119 -97 318 -168 426 -153 125 17 219 82 278 193 l32 59 42 -39 c152 -140 338 -206 612 -215 l159 -6 -6 169 c-9 267 -51 433 -145 571 -22 32 -49 67 -61 77 l-22 20 72 37 c39 21 82 47 94 59 38 35 77 137 83 210 9 132 -60 331 -153 437 -25 28 -45 54 -45 57 0 3 20 34 45 69 90 129 132 253 160 465 22 163 19 552 -4 552 -3 0 -40 -15 -81 -33z m-174 -496 c-16 -143 -83 -294 -170 -384 -71 -74 -149 -123 -272 -172 l-106 -42 59 -6 c229 -24 388 -158 458 -386 27 -89 27 -108 1 -115 -36 -9 -134 13 -195 42 -31 15 -96 66 -152 118 -109 103 -189 149 -275 160 -70 8 -133 -9 -191 -53 -53 -40 -60 -37 -99 43 -49 100 -19 190 98 300 88 82 222 175 427 296 95 57 228 137 295 179 66 43 123 77 125 78 2 1 1 -25 -3 -58z m-1117 -999 c53 -27 58 -42 27 -89 -34 -52 -56 -123 -56 -183 0 -67 43 -144 150 -274 129 -154 160 -223 146 -321 -6 -37 -12 -46 -33 -51 -63 -16 -234 75 -325 173 -72 78 -102 148 -115 268 l-8 69 -33 -86 c-47 -124 -77 -173 -159 -259 -112 -117 -210 -162 -382 -176 -98 -7 -98 -19 4 117 100 133 177 249 290 440 54 91 115 188 135 215 50 67 122 132 173 156 54 24 141 25 186 1z m509 -177 c178 -71 247 -110 330 -188 119 -113 206 -294 237 -496 l7 -44 -50 7 c-237 31 -430 141 -545 310 -43 63 -127 235 -172 352 -26 69 -27 72 -10 98 10 14 22 26 29 26 6 0 84 -29 174 -65z"
       id="path2"
       style="fill:#e59500;fill-opacity:1" />
  </g>
  <path
     style="fill:#e59500;stroke-width:1.82287;fill-opacity:1"
     d="M 137.62706,682.78262 V 133.06987 h 545.03961 545.03963 v 86.58656 86.58656 h -73.8265 -73.8264 v 18.22875 18.22875 l 33.2675,0.007 c 18.2971,0.004 43.7262,0.54079 56.5091,1.19274 l 23.2417,1.18535 v 115.47125 115.47125 h -57.4206 -57.4206 v 38.28038 38.28037 H 972.46864 866.70675 l -15.00234,12.964 c -20.13314,17.3977 -77.94577,55.03822 -80.54375,52.44024 -0.41457,-0.41457 -2.49897,-9.3176 -4.63199,-19.78453 -2.13302,-10.46692 -6.16229,-24.91293 -8.95391,-32.10225 -5.48377,-14.12247 -17.32178,-36.33393 -20.36837,-38.21683 -1.03433,-0.63925 4.87689,-5.32088 13.13606,-10.40362 18.73553,-11.52994 40.56478,-32.21855 55.09173,-52.21301 l 11.12697,-15.31485 79.79418,1.01527 79.7942,1.01527 v -39.93216 -39.93215 h 59.24347 59.2434 v -15.58786 -15.58788 l -75.4994,0.54916 c -41.52466,0.30204 -76.18207,1.23187 -77.01646,2.0663 -0.83438,0.83446 -1.79952,16.08503 -2.14472,33.89017 l -0.62767,32.373 -53.95768,1.14916 c -29.67674,0.63204 -54.26353,0.84335 -54.63733,0.46955 -0.37379,-0.37378 1.01347,-8.75884 3.08281,-18.63345 4.84386,-23.11432 9.24371,-57.73424 9.24371,-72.73345 v -11.75532 h 31.90031 31.90031 v -17.31731 -17.31732 h -48.01992 -48.01992 l -1.21626,29.62172 c -1.36683,33.28841 -4.71402,59.72096 -10.36559,81.85596 -16.19984,63.44848 -55.31811,106.6712 -109.62305,121.12514 l -12.17134,3.23954 9.29136,10.13579 c 12.5768,13.71979 24.50611,32.48924 32.50973,51.15047 10.30027,24.01605 11.7129,31.96466 11.6627,65.6235 -0.0387,25.93798 -0.60461,31.86547 -4.11198,43.06936 -14.80999,47.3089 -49.42925,83.71013 -91.48645,96.19559 -22.9483,6.81261 -55.77881,5.48823 -81.58561,-3.29115 -38.14521,-12.97687 -61.26116,-33.45544 -80.10282,-70.96365 -6.51852,-12.97646 -8.69269,-15.86404 -11.18406,-14.85395 -1.70093,0.68959 -21.34412,1.69923 -43.65155,2.24361 l -40.55897,0.98981 v 47.13161 47.13164 h 7.0241 c 3.86326,0 12.0662,-0.52701 18.22875,-1.17113 l 11.20465,-1.1711 V 851.93435 822.1166 h 20.01458 20.01457 l 3.90485,7.74722 c 5.22604,10.36844 18.16535,28.36215 25.15422,34.97998 7.59182,7.1888 5.33623,8.25114 -17.592,8.28539 l -18.68447,0.0279 v 100.25812 100.25809 h 15.56467 15.56467 l -0.52595,-82.94158 -0.52595,-82.94163 49.5264,8.2e-4 49.52641,8e-4 -1.80807,6.83578 c -2.7793,10.5078 -16.55779,38.02138 -27.15805,54.23053 -9.61251,14.69877 -27.98895,38.15658 -33.42633,42.66918 -2.56252,2.1267 -2.93718,8.4547 -2.93718,49.6092 v 47.1716 l -27.79884,-0.01 c -15.28936,0 -37.02715,-0.5401 -48.30619,-1.19 l -20.50734,-1.1816 V 1046.05 986.17363 H 344.52336 274.34268 V 881.15039 776.12543 l 5.01291,3.25864 c 2.75709,1.79225 10.54988,6.92871 17.31731,11.41434 l 12.3044,8.1557 v 77.20475 77.20474 h 52.86338 52.86337 v -17.31732 -17.31731 h -36.4575 -36.4575 v -71.97731 -71.97733 l -11.39297,-5.74337 c -22.71484,-11.4509 -42.4158,-26.11024 -65.14421,-48.47334 -12.51931,-12.31808 -22.97805,-22.39652 -23.24166,-22.39652 -0.2636,0 -0.47986,40.80962 -0.48058,90.68803 -7.1e-4,49.87842 -0.54582,154.05572 -1.21135,231.50517 l -1.21005,140.817 h -17.30728 -17.30728 l 1.20132,-38.5743 c 0.66072,-21.2158 1.20132,-236.95306 1.20132,-479.41606 V 202.33912 l 422.45126,0.003 c 232.3482,0.002 446.44483,0.54415 475.77033,1.20511 l 53.3191,1.20175 v 16.62541 16.62541 l -189.58628,-0.7337 c -104.27247,-0.40354 -202.27739,-0.13891 -217.78871,0.58805 l -28.20239,1.32175 23.76856,25.03787 c 25.45619,26.81561 38.3466,42.9397 49.96908,62.50436 l 7.29059,12.27256 67.90209,0.0318 67.90209,0.0318 v 34.63462 34.63463 h 18.22875 18.22875 v -50.75511 -50.75511 l -28.71028,-1.19076 c -15.79065,-0.65491 -50.12733,-1.19348 -76.30372,-1.19682 l -47.59342,-0.006 -11.16754,-16.8616 -11.16753,-16.86159 54.20377,-0.57569 c 29.81208,-0.31662 77.17201,-0.0237 105.24429,0.65091 l 51.0405,1.22659 -0.5573,66.9809 -0.5572,66.98088 11.3062,1.18173 c 6.2184,0.64995 32.5135,1.18174 58.4335,1.18174 h 47.1274 v 50.12906 50.12906 h -59.2435 -59.2434 v 38.28037 38.28038 h -89.16675 -89.16673 l -10.03454,11.42951 c -5.51901,6.28624 -17.49679,17.55201 -26.61729,25.03506 -11.6031,9.51991 -16.24676,14.43549 -15.46387,16.36932 0.61536,1.52008 3.61006,9.53122 6.65486,17.80251 3.04478,8.2713 6.11813,15.03872 6.82964,15.03872 3.03386,0 27.87411,-18.9579 45.03525,-34.37058 L 855.5929,619.7771 h 94.91294 94.91296 v -39.43706 -39.43706 l 57.4205,0.847 57.4206,0.84702 v -83.5422 -83.54256 h -56.5091 -56.5091 V 323.5603 271.60837 h 73.9508 73.9508 l -1.2757,-50.58478 c -0.7017,-27.82163 -1.6462,-50.99493 -2.0991,-51.49622 -0.4528,-0.50129 -230.43723,-1.12785 -511.0765,-1.39236 L 170.43881,167.6541 V 681.73004 1195.806 h 51.95193 51.95194 v -87.498 -87.498 h 53.77481 53.77481 v 60.1548 60.1549 l 36.00178,0.01 c 19.80098,0 48.95145,0.5431 64.77883,1.1996 l 28.77704,1.1935 -0.52247,15.662 -0.5225,15.662 -27.34312,0.588 c -15.03872,0.3233 -52.15701,0.024 -82.48509,-0.6651 l -55.14197,-1.2531 v -59.0341 -59.034 h -17.97582 -17.97582 l -0.87645,86.6024 c -0.48204,47.6314 -1.4837,87.2106 -2.2259,87.9538 -0.7422,0.7432 -39.01542,1.6085 -85.0516,1.9229 l -83.70215,0.5717 z m 387.31659,272.89732 c 4.45547,-7.61127 7.67523,-14.52731 7.15504,-15.369 -0.52019,-0.8417 -4.99887,-1.53034 -9.9526,-1.53034 h -9.00679 v 16.51346 c 0,10.71653 0.65005,16.1117 1.85176,15.369 1.01846,-0.62946 5.49714,-7.37185 9.95259,-14.98312 z m 92.36322,-102.50826 c 31.61519,-9.76851 55.35123,-32.97439 67.34651,-65.84222 4.96347,-13.60022 5.30479,-16.27007 5.30479,-41.49524 0,-31.14083 -1.69654,-38.77171 -13.84107,-62.25612 -14.01536,-27.10208 -31.48519,-44.94278 -79.12556,-80.80525 -69.48547,-52.30693 -100.65888,-98.58571 -100.89753,-149.78843 -0.0421,-9.02323 0.99451,-20.91749 2.30348,-26.43168 6.03563,-25.42583 23.26448,-50.27291 44.31092,-63.90422 45.28965,-29.3331 106.95188,-4.82462 110.33118,43.85259 1.86236,26.82654 -15.7686,51.16852 -40.97732,56.57482 -15.8608,3.40154 -29.26899,-2.7385 -32.07959,-14.69026 -1.03559,-4.40371 -0.7741,-4.56945 6.16506,-3.90769 9.00613,0.85886 15.66719,-3.17558 19.19901,-11.62841 8.7497,-20.94101 -5.58848,-40.52634 -28.12855,-38.42236 -11.8413,1.1053 -19.64729,6.08631 -27.28348,17.40962 -7.24463,10.74266 -10.17037,22.92588 -9.00172,37.4846 1.67249,20.83579 14.26822,39.09644 33.27261,48.23695 12.41551,5.97147 39.31792,7.36691 54.86901,2.84609 27.8968,-8.10982 50.16054,-30.33182 59.24834,-59.13725 5.27295,-16.71356 5.28825,-43.91205 0.034,-60.41784 -10.23555,-32.15411 -39.20029,-58.28883 -73.58589,-66.39614 -14.89976,-3.51302 -43.30321,-3.49082 -56.87601,0.0444 -23.00113,5.99104 -49.21451,23.70948 -64.06525,43.30372 -18.48043,24.38327 -29.40108,55.81888 -31.17893,89.75011 -2.31612,44.20422 12.65393,81.56146 47.64921,118.90688 7.75077,8.27129 13.36156,15.03872 12.46839,15.03872 -2.95587,0 -19.37705,-11.17104 -39.70663,-27.01166 -29.12291,-22.69233 -47.05052,-34.53538 -65.71947,-43.41459 -24.12081,-11.47217 -35.56107,-13.93219 -60.81773,-13.07778 -18.31151,0.61947 -22.45612,1.36324 -31.20942,5.6006 -13.24481,6.41168 -24.29403,16.04057 -30.47806,26.56026 -4.57781,7.7873 -4.99145,10.04502 -4.89805,26.73436 0.0801,14.30524 0.90621,20.01425 3.83835,26.5243 10.48017,23.26847 33.70397,35.74908 57.16071,30.71851 16.31619,-3.49919 27.49231,-17.52436 24.56933,-30.8326 -2.00434,-9.12571 -6.99273,-10.23495 -16.80357,-3.73651 -26.53753,17.57773 -49.30144,-12.46533 -27.30942,-36.04207 8.70988,-9.33751 17.17472,-12.099 36.82621,-12.01382 16.4101,0.0711 19.63276,0.67395 32.30145,6.04221 17.91051,7.58943 30.83936,15.9829 57.51524,37.33917 35.82808,28.68338 51.03791,37.24062 94.29368,53.05091 32.98642,12.05675 46.95709,19.7693 62.47165,34.48759 16.91051,16.04258 28.76096,33.91151 35.54776,53.60135 4.86004,14.09992 5.29627,17.28692 4.64531,33.93785 -0.5898,15.0864 -1.58857,20.25919 -5.57837,28.8914 -6.25319,13.52919 -21.90968,29.21536 -35.53106,35.59841 -9.33412,4.37401 -12.66398,4.92729 -29.65498,4.92729 -17.42083,0 -20.10533,-0.4739 -29.88421,-5.2754 -26.3696,-12.94768 -40.26195,-40.72101 -31.20795,-62.3903 7.30054,-17.47264 26.91812,-31.54533 40.43884,-29.00883 8.55561,1.60504 18.83044,11.5354 18.83044,18.19914 0,5.51391 -3.87875,13.82033 -8.08273,17.30933 -4.4748,3.71372 -3.3867,8.8453 2.52359,11.90162 10.04378,5.19385 22.29964,2.27767 31.41914,-7.4759 6.79796,-7.27061 8.77463,-13.52954 8.77463,-27.78411 0,-20.19908 -9.00433,-34.47174 -28.04225,-44.44948 -6.04167,-3.16644 -11.50615,-4.07598 -28.04413,-4.66785 -19.52031,-0.6986 -21.05918,-0.48257 -30.98888,4.35009 -14.71204,7.16016 -31.87214,24.80152 -39.05442,40.14971 -12.7692,27.28715 -7.31467,63.76929 13.39946,89.6211 12.61038,15.73808 38.1087,30.89451 58.9471,35.03865 14.69005,2.92141 41.80435,2.05432 54.04682,-1.72838 z M 433.59554,755.6019 c 16.19471,-3.43113 25.35689,-8.95229 38.92432,-23.45594 15.74924,-16.83598 21.32212,-29.08856 22.09024,-48.56786 0.7746,-19.64342 -3.54777,-32.23344 -15.71074,-45.76158 -11.71992,-13.03537 -22.88565,-18.00121 -40.49794,-18.01106 -17.20197,-0.01 -25.2089,2.20612 -35.02349,9.69195 -16.02973,12.22628 -23.39227,30.63511 -20.06929,50.18 2.17396,12.78677 6.63572,19.1587 16.29814,23.27581 6.69597,2.85311 11.28177,3.12879 14.81345,0.8905 2.0249,-1.28334 1.94575,-2.52915 -0.45572,-7.17307 -6.82794,-13.2038 -1.04378,-29.12477 12.80708,-35.25165 12.74665,-5.63846 25.21299,-0.31213 30.56269,13.05811 5.64234,14.1016 2.61269,26.47352 -8.78314,35.86692 -13.66132,11.26081 -38.36239,13.44972 -59.97503,5.31474 -53.96133,-20.31098 -91.75961,-57.37841 -108.92471,-106.81854 -4.0251,-11.59336 -4.13015,-13.92075 -4.87494,-108.00534 l -0.76119,-96.15665 h 47.55845 47.55846 v -7.03708 c 0,-3.87039 0.52165,-10.84288 1.1592,-15.49444 l 1.15922,-8.45736 h -48.55397 -48.55395 v -38.00533 c 0,-20.90295 0.53051,-44.28132 1.17892,-51.95194 l 1.17892,-13.9466 h 28.89851 28.89852 v 17.31731 17.31732 h -13.67156 -13.67156 v 17.31731 17.31731 h 30.98887 30.98888 l 0.009,-16.86159 c 0.005,-9.27388 0.53906,-24.85946 1.18638,-34.63463 l 1.17694,-17.77303 52.13271,0.1487 c 28.673,0.0818 79.20242,0.80914 112.2876,1.61634 56.34035,1.37459 61.13741,1.75527 75.64931,6.00339 53.49382,15.65941 88.90172,42.30988 110.95598,83.51326 12.70064,23.72825 15.75048,36.86686 15.62415,67.30843 -0.0979,23.59141 -0.63155,27.99874 -4.96626,41.01469 -9.89074,29.69919 -27.77518,51.48785 -51.89577,63.22479 -11.72789,5.70671 -13.43964,6.01409 -36.95283,6.63545 -23.42571,0.61905 -39.35319,-1.49899 -60.56411,-8.05379 -2.59982,-0.80343 -3.18263,0.133 -3.15,5.06136 0.0985,14.87599 11.89318,28.99755 30.34372,36.32995 9.46462,3.76132 13.63071,4.22293 37.97406,4.2076 26.15569,-0.0165 27.94126,-0.25655 41.11624,-5.52829 30.41702,-12.17086 54.08368,-34.45642 69.23399,-65.19376 13.87126,-28.14234 16.90843,-41.8092 17.06414,-76.78656 0.14364,-32.2625 -2.42638,-45.43771 -14.46667,-74.16338 -23.33867,-55.68138 -77.54492,-96.55928 -149.84211,-112.99858 -17.60133,-4.00229 -19.68076,-4.05234 -194.20481,-4.67492 l -176.41297,-0.62931 0.56921,185.55398 c 0.63733,207.75982 -0.41638,191.271 14.22758,222.63765 18.61289,39.86786 56.79812,77.27342 100.84782,98.78866 28.61041,13.97422 50.40021,17.33461 76.51964,11.80075 z m 471.07216,-295.7817 -0.52173,-17.77303 -15.95015,-0.52668 -15.95016,-0.5267 v 9.84238 c 0,5.41328 -0.52165,13.64815 -1.1592,18.29971 l -1.15922,8.45736 h 17.6311 17.63108 z M 431.10992,386.44949 v -82.02937 h -13.3793 -13.3793 l -1.2037,46.779 c -0.66203,25.72845 -1.20369,56.07932 -1.20369,67.44637 v 20.66737 h -47.62261 -47.62261 l 1.1393,5.69649 c 0.62661,3.13306 1.13929,9.69541 1.13929,14.583 v 8.88651 h 61.06631 61.06631 z M 492.465,331.97708 c 12.48549,-15.39861 16.02571,-22.21863 14.56163,-28.05202 -1.55345,-6.18945 -11.25271,-9.44529 -23.73416,-7.96704 -10.98003,1.30042 -16.97277,5.29371 -22.53084,15.01354 -6.82187,11.92996 -4.93925,38.01232 3.98947,55.27059 l 3.22022,6.22436 7.54528,-14.44618 c 4.14988,-7.9454 11.77666,-19.66486 16.9484,-26.04325 z"
     id="path15"
     transform="scale(0.75)" />
  <path
     style="fill:#e59500;fill-opacity:1;stroke-width:0.644484"
     d="m 878.68614,1048.5363 c -35.85952,-1.8589 -57.99513,-9.7443 -78.86084,-28.0925 -7.35013,-6.4633 -6.33934,-6.6686 -11.21662,2.2783 -6.67317,12.2414 -15.88525,19.8903 -28.76249,23.882 -12.29658,3.8116 -27.52686,1.4252 -45.4361,-7.1195 -8.54665,-4.0777 -11.54389,-5.9618 -20.166,-12.6769 -7.81816,-6.089 -6.56614,-6.03 -12.64141,-0.5957 -9.93327,8.8854 -23.007,15.0925 -39.42543,18.7184 -10.53215,2.3259 -17.97021,3.0593 -30.85032,3.0418 -19.85515,-0.027 -35.62394,-2.9272 -52.80843,-9.7129 -9.49654,-3.7499 -12.59457,-5.4725 -11.89169,-6.6121 0.26992,-0.4376 9.03615,-12.2513 19.48053,-26.2528 10.44438,-14.00136 28.98535,-39.08789 41.20215,-55.74779 12.2168,-16.6599 24.99239,-33.77094 28.3902,-38.02453 18.19856,-22.78212 39.86235,-40.00487 57.1202,-45.41066 3.04304,-0.95319 6.9761,-1.53281 12.08407,-1.78084 l 7.57268,-0.36771 v -4.44372 c 0,-5.72558 1.39744,-12.50967 4.5062,-21.87609 3.04303,-9.16838 5.07557,-13.26368 10.87117,-21.90395 13.53578,-20.17958 38.61064,-41.87489 89.80696,-77.70294 33.60085,-23.51445 60.01976,-39.71861 76.79227,-47.10092 9.93723,-4.3738 9.83566,-4.34841 10.33598,-2.5837 1.26319,4.45545 1.87953,29.80702 1.15454,47.48877 -1.68553,41.108 -7.56253,62.94045 -23.31495,86.61261 l -5.91734,8.89235 2.63596,3.35284 c 1.44978,1.84405 4.24158,5.38295 6.20399,7.86421 4.39571,5.5579 11.12821,19.07916 13.79875,27.7128 5.40855,17.48538 5.22014,30.53107 -0.63983,44.30178 -3.88957,9.14036 -7.48342,12.39252 -21.84878,19.7715 -3.56754,1.83252 -6.48643,3.60245 -6.48643,3.93318 0,0.33073 0.70388,1.06253 1.56418,1.62622 3.77597,2.47411 13.45752,16.89357 17.42627,25.95423 7.46008,17.03138 10.37158,34.86136 11.67471,71.49546 l 0.41839,11.7618 -6.68012,-0.098 c -3.67408,-0.054 -10.91566,-0.3171 -16.09242,-0.5855 z m -260.43983,-34.1414 c 21.36599,-2.2766 32.3654,-7.2232 46.44891,-20.88889 11.85935,-11.50752 17.80029,-20.89077 24.61097,-38.87114 1.51185,-3.99132 2.87262,-7.13313 3.02395,-6.9818 0.15132,0.15132 0.68467,3.39331 1.1852,7.20443 2.26406,17.23857 6.72805,26.63635 17.77939,37.42999 8.46006,8.26281 20.57684,15.93601 30.29731,19.18641 5.09633,1.7042 10.65333,2.1459 12.76679,1.0148 1.87997,-1.0061 2.86515,-4.9649 2.88819,-11.6056 0.0379,-10.93418 -3.35024,-17.60451 -18.76226,-36.93771 -17.29708,-21.69788 -21.5767,-30.08576 -20.61725,-40.40902 0.56852,-6.11709 2.56701,-12.11827 6.65046,-19.97034 4.05966,-7.80634 4.02311,-9.04548 -0.35212,-11.94087 -3.88221,-2.56913 -8.10357,-3.5867 -14.91163,-3.59449 -11.06194,-0.0127 -17.40222,3.16152 -28.36133,14.1987 -7.11096,7.16163 -10.91952,12.72934 -27.36558,40.00568 -14.00203,23.22286 -24.27765,38.75663 -36.9908,55.91945 -5.32124,7.1837 -9.85676,13.634 -10.07893,14.334 -0.88928,2.8019 0.80813,3.0764 11.78873,1.9064 z m 247.61743,-3.8017 c 0,-0.3308 -0.71398,-4.4636 -1.58663,-9.1839 -4.90104,-26.51048 -15.39884,-47.44914 -31.51235,-62.85375 -10.5719,-10.1068 -20.76298,-15.85418 -45.52802,-25.67605 -17.65267,-7.00108 -21.14457,-8.13589 -22.6144,-7.34926 -1.84312,0.98641 -4.45391,5.20827 -4.45391,7.20234 0,5.98258 18.63533,46.04245 26.91561,57.85975 4.28916,6.12134 16.33656,17.77314 22.85412,22.10367 6.83899,4.54411 18.09705,9.9824 26.05512,12.5861 11.40794,3.7324 29.87046,7.0151 29.87046,5.3111 z m 2.28422,-106.82552 c 1.53537,-1.53537 0.88652,-6.0923 -2.21035,-15.52331 -8.15696,-24.84072 -22.67802,-40.28781 -44.56023,-47.40191 -5.39714,-1.75466 -15.57525,-3.65824 -19.55999,-3.65824 -3.67474,0 -2.5963,-0.70104 6.87029,-4.46605 27.36691,-10.88422 41.33117,-22.37037 51.59755,-42.441 5.83197,-11.40141 9.42594,-23.81823 10.46071,-36.14072 l 0.45241,-5.3875 -1.53946,0.81454 c -0.8467,0.44799 -6.46976,3.91876 -12.49568,7.71281 -6.02592,3.79406 -21.68687,13.35743 -34.80211,21.25193 -27.8665,16.77379 -39.31994,24.17128 -51.11756,33.01552 -15.62938,11.71677 -24.98937,21.98623 -28.47805,31.24511 -1.16871,3.10172 -1.36719,4.7383 -1.16243,9.58493 0.22383,5.29785 0.50497,6.38298 3.00553,11.6007 3.1123,6.4942 4.83235,8.65633 6.8864,8.65633 0.77748,0 3.78823,-1.58029 6.69054,-3.51175 8.83081,-5.87684 16.50645,-8.00592 24.71948,-6.85671 11.60419,1.62372 20.10168,6.41061 34.9447,19.68544 14.57651,13.03646 20.45374,17.08914 29.00176,19.99834 8.67338,2.95187 19.26062,3.85742 21.29649,1.82154 z"
     id="path16"
     transform="scale(0.75)" />
  <path
     style="fill:#e59500;fill-opacity:1;stroke-width:0.0402802"
     d="m 737.52765,450.4437 c 0.0902,-0.70909 0.24536,-3.1058 0.36562,-5.6493 0.28315,-5.98885 0.36059,-21.32478 0.14075,-27.87392 -0.15634,-4.6576 -0.41298,-8.56436 -0.80705,-12.28547 -0.0955,-0.90162 -0.3921,-3.34356 -0.422,-3.47417 l -0.0208,-0.0906 h 0.68553 c 0.37705,0 0.68566,0.0136 0.68582,0.0302 1.6e-4,0.0166 0.0827,0.46524 0.18341,0.99694 1.07074,5.65241 1.84851,12.03107 2.17089,17.80386 0.55788,9.98987 0.0659,19.12488 -1.59572,29.6295 l -0.1715,1.08417 h -0.61839 -0.61839 z"
     id="path17"
     transform="scale(0.75)" />
  <path
     style="fill:#e59500;fill-opacity:1;stroke-width:0.0284824"
     d="m 737.45316,401.06176 -0.66878,-0.015 -0.0357,-0.25634 c -0.33257,-2.38889 -0.81061,-5.08267 -1.30406,-7.34847 -0.1486,-0.68235 -0.53592,-2.35492 -0.57218,-2.47085 -0.0144,-0.0461 0.0197,-0.0498 0.45172,-0.0498 h 0.4673 l 0.25988,0.98976 c 0.52268,1.99068 1.00971,4.00654 1.41582,5.86026 0.29746,1.35777 0.69613,3.32001 0.67287,3.31188 -0.01,-0.003 -0.31905,-0.0131 -0.68688,-0.0214 z"
     id="path18"
     transform="scale(0.75)" />
  <path
     style="fill:#e59500;fill-opacity:1;stroke-width:0.0284824"
     d=""
     id="path19"
     transform="scale(0.75)" />
  <path
     style="fill:#e59500;fill-opacity:1;stroke-width:0.0284824"
     d="m 738.16434,424.55185 c -0.002,-7.87142 -0.37199,-15.26351 -1.05513,-21.06987 -0.13005,-1.10539 -0.2828,-2.31708 -0.29712,-2.35692 -0.0186,-0.0517 1.27657,-0.0517 1.31539,0 0.0311,0.0413 0.38738,1.97225 0.63467,3.43925 1.14332,6.78263 1.79326,13.66879 1.9268,20.41477 l 0.0193,0.97553 h -1.27179 -1.2718 z"
     id="path20"
     transform="scale(0.75)" />
  <path
     style="fill:#e59500;fill-opacity:1;stroke-width:0.0284824"
     d="m 703.64397,408.43792 v -17.51669 h 15.59175 15.59174 l 0.1469,0.60524 c 1.72229,7.09608 2.69068,15.17042 3.01891,25.17135 0.0829,2.52581 0.14226,5.82362 0.14266,7.92523 l 2.5e-4,1.33156 h -17.2461 -17.24611 z"
     id="path21"
     transform="scale(0.75)" />
  <path
     style="fill:#e59500;fill-opacity:1;stroke-width:0.0284824"
     d="m 703.64397,408.43792 v -17.51669 h 15.59358 15.59359 l 0.015,0.0641 c 0.008,0.0352 0.0782,0.32684 0.15549,0.64798 1.60318,6.66369 2.54271,14.11947 2.9198,23.17045 0.12846,3.08336 0.21411,6.99235 0.21454,9.79083 l 2e-4,1.36004 h -17.2461 -17.24611 z"
     id="path22"
     transform="scale(0.75)" />
  <path
     style="fill:#e59500;fill-opacity:1;stroke-width:0.00390625"
     d="m 737.29322,405.44043 c -10e-4,-0.005 -0.006,-0.0562 -0.012,-0.11426 -0.0147,-0.15202 -0.0756,-0.73166 -0.10759,-1.02344 -0.13166,-1.20161 -0.28165,-2.40758 -0.43745,-3.51722 -0.0107,-0.0761 -0.0185,-0.13923 -0.0174,-0.14036 10e-4,-10e-4 0.004,-4.1e-4 0.005,0.002 0.002,0.002 0.0154,0.0913 0.0302,0.19833 0.0148,0.10707 0.0281,0.19667 0.0296,0.1991 0.002,0.003 0.11341,0.007 0.38671,0.0132 0.21121,0.005 0.4051,0.009 0.43088,0.01 0.0258,7.1e-4 -0.1478,0.002 -0.38574,0.002 -0.23794,4.6e-4 -0.43262,0.002 -0.43262,0.003 0,9.9e-4 0.005,0.0253 0.0117,0.054 0.0169,0.0757 0.0321,0.18332 0.0878,0.62193 0.0983,0.77452 0.25062,2.05168 0.32215,2.70117 0.0314,0.28496 0.10183,0.96919 0.10183,0.98906 0,0.0134 -0.0107,0.0151 -0.0134,0.002 z"
     id="path23"
     transform="scale(0.75)" />
  <path
     style="fill:#e59500;fill-opacity:1;stroke-width:0.00390625"
     d=""
     id="path24"
     transform="scale(0.75)" />
  <path
     style="fill:#e59500;fill-opacity:1;stroke-width:0.00390625"
     d="m 737.29354,405.26074 c -0.0806,-0.80332 -0.18238,-1.6938 -0.34037,-2.97949 -0.0923,-0.75123 -0.13507,-1.07135 -0.15452,-1.15703 -0.006,-0.028 -0.0115,-0.0515 -0.0115,-0.0524 0,-8.5e-4 -0.002,-0.002 -0.005,-0.002 -0.003,0 -0.007,-0.011 -0.009,-0.0342 -0.002,-0.0188 -0.0143,-0.10598 -0.0264,-0.19374 -0.0121,-0.0878 -0.0214,-0.16247 -0.0207,-0.16602 7e-4,-0.004 0.0132,0.077 0.0279,0.1791 0.0146,0.10205 0.0281,0.18715 0.03,0.18911 0.002,0.002 0.003,-0.002 10e-4,-0.01 -10e-4,-0.007 -0.0139,-0.0982 -0.0284,-0.20181 l -0.0263,-0.18848 0.6662,1e-5 h 0.66621 l 0.0191,0.10058 c 0.0276,0.14579 0.0522,0.28437 0.0554,0.31263 l 0.003,0.0245 -0.0152,-0.002 c -0.0408,-0.005 -1.16924,-0.0344 -1.27688,-0.0328 -0.0423,6.2e-4 -0.0421,6.7e-4 0.0176,0.003 0.0333,0.002 0.16338,0.005 0.28907,0.008 l 0.22851,0.005 -0.13281,0.002 -0.13281,0.002 0.16015,10e-4 c 0.50669,0.003 0.82933,0.0137 0.86761,0.0283 0.006,0.002 0.009,0.008 0.0112,0.0201 0.0113,0.0722 0.0838,0.46425 0.20716,1.12036 0.14545,0.7733 0.273,1.48915 0.41379,2.32227 0.0464,0.27432 0.14672,0.88116 0.14672,0.88714 0,8.4e-4 -0.36256,0.002 -0.80568,0.002 h -0.80569 z"
     id="path25"
     transform="scale(0.75)" />
  <path
     style="fill:#e59500;fill-opacity:1;stroke-width:0.00390625"
     d=""
     id="path26"
     transform="scale(0.75)" />
  <path
     style="fill:#e59500;fill-opacity:1;stroke-width:0.00390625"
     d=""
     id="path27"
     transform="scale(0.75)" />
  <path
     style="fill:#e59500;fill-opacity:1;stroke-width:0.00390625"
     d=""
     id="path28"
     transform="scale(0.75)" />
  <path
     style="fill:#e59500;fill-opacity:1;stroke-width:0.00390625"
     d="m 732.33008,403.04687 v -2.40234 h 2.1914 c 1.20528,0 2.19141,7.9e-4 2.19141,0.002 0,9.6e-4 0.0122,0.0893 0.0272,0.19628 0.19697,1.40998 0.40308,3.12753 0.53314,4.44259 0.008,0.0763 0.0145,0.14438 0.0155,0.15136 l 0.002,0.0127 h -2.48022 -2.48022 z"
     id="path29"
     transform="scale(0.75)" />
  <path
     style="fill:#e59500;fill-opacity:1;stroke-width:0.00390625"
     d="m 738.95508,405.61829 c 0,-0.0107 -0.12021,-0.74034 -0.18746,-1.13782 -0.14703,-0.86898 -0.25158,-1.45098 -0.46245,-2.57422 -0.071,-0.37837 -0.12114,-0.65043 -0.14386,-0.781 -0.006,-0.0333 -0.004,-0.0321 -0.0598,-0.0389 l -0.0312,-0.004 0.0366,10e-4 0.0366,10e-4 -0.003,-0.0249 c -0.002,-0.0206 -0.0321,-0.19601 -0.0398,-0.23301 -0.002,-0.009 -8.8e-4,-0.0107 0.005,-0.0107 0.009,0 0.004,-0.0214 0.0492,0.20898 0.24757,1.27329 0.45008,2.38675 0.65431,3.59766 0.0515,0.30542 0.16444,0.98968 0.16444,0.9964 0,9.1e-4 -0.004,0.002 -0.01,0.002 -0.005,0 -0.01,-0.001 -0.01,-0.003 z"
     id="path30"
     transform="scale(0.75)" />
  <path
     style="fill:#e59500;fill-opacity:1;stroke-width:0.0883883"
     d="m 734.69472,390.16817 c -0.62481,-2.578 -2.16546,-7.37524 -3.40441,-10.60061 -1.49415,-3.88969 -3.4065,-8.13576 -5.84453,-12.97689 -3.97621,-7.8954 -7.42898,-13.85967 -11.62813,-20.08625 l -1.26667,-1.87825 0.85763,0.002 0.85763,0.002 1.27699,1.92038 c 3.71073,5.58034 6.53471,10.45038 9.49352,16.37187 4.32338,8.65245 7.49249,16.77069 10.17161,26.05642 0.27063,0.93798 0.49205,1.74342 0.49205,1.78986 0,0.0464 -0.18893,0.0844 -0.41984,0.0844 l -0.41985,-9e-5 z"
     id="path31"
     transform="scale(0.75)" />
  <path
     style="fill:#e59500;fill-opacity:1;stroke-width:0.0883883"
     d="m 600.11268,465.00798 c -7.15921,-0.56047 -12.54778,-2.63145 -16.2865,-6.25934 -1.50358,-1.45901 -2.4722,-2.78387 -3.3376,-4.56512 -1.32601,-2.72931 -1.82822,-5.36075 -1.74272,-9.13134 0.0633,-2.79264 0.25047,-3.33607 1.01415,-2.94489 0.18299,0.0937 0.49181,0.29776 0.68627,0.4534 1.20492,0.9644 2.86799,1.32559 6.10348,1.32559 4.38892,0 8.13907,-0.73865 10.27856,-2.02452 1.05032,-0.63126 1.70455,-1.18451 3.0892,-2.61238 3.23442,-3.33538 5.42549,-7.29368 6.64735,-12.00879 0.66609,-2.5704 0.91148,-4.43478 0.90947,-6.9098 -0.002,-2.54845 -0.23962,-4.0879 -1.00929,-6.54074 -2.08534,-6.64566 -5.69829,-11.69899 -10.72759,-15.00436 -3.09936,-2.03697 -6.83565,-3.35531 -11.10042,-3.91676 -1.47121,-0.19368 -5.26007,-0.26667 -6.9453,-0.1338 -5.84551,0.46089 -10.89945,2.17526 -15.56395,5.2795 l -1.34792,0.89705 v -0.37307 -0.37307 l 0.95018,-0.62178 c 3.87605,-2.53645 8.30723,-4.12401 13.50132,-4.83712 2.97133,-0.40795 6.48967,-0.48582 8.88302,-0.19662 5.53297,0.66857 10.24546,2.56367 14.26153,5.73516 1.14613,0.9051 3.1957,2.95983 4.03297,4.04312 2.94448,3.8097 4.72044,8.14508 5.32252,12.99309 0.15267,1.22938 0.15147,5.14911 -0.002,6.36396 -0.70796,5.60571 -2.71481,10.92391 -5.43666,14.4073 -0.60954,0.78007 -1.91349,2.11856 -2.66625,2.73687 -2.41325,1.98219 -5.40231,3.2145 -8.79232,3.62482 -1.19607,0.14478 -3.68469,0.10556 -5.97261,-0.0941 -3.491,-0.30468 -4.71072,-0.17388 -5.17016,0.55442 -0.54247,0.85989 0.32345,4.70897 1.68179,7.4757 0.69505,1.41571 1.38501,2.48977 2.31319,3.60095 4.18992,5.01601 10.8343,7.84311 18.94531,8.06099 4.83228,0.1298 9.61035,-0.64191 14.84925,-2.39832 15.1624,-5.08339 27.27952,-17.36155 32.71664,-33.15145 4.68535,-13.60668 3.86707,-28.85939 -2.25351,-42.00544 -3.73104,-8.01369 -9.67006,-15.4503 -16.89915,-21.16048 -0.43553,-0.34402 -0.79187,-0.64105 -0.79187,-0.66007 0,-0.019 0.56679,-0.0336 1.25954,-0.0324 l 1.25953,0.002 1.06066,0.93334 c 1.41118,1.24179 4.23613,4.044 5.51482,5.47043 6.8633,7.65631 11.40419,16.00659 13.69871,25.19068 1.49185,5.97126 1.91425,12.09584 1.28799,18.67472 -1.88609,19.81325 -13.03316,36.86548 -29.48389,45.10295 -5.39455,2.70125 -10.92636,4.2889 -17.08507,4.90349 -1.60632,0.16029 -6.24029,0.23662 -7.65272,0.12605 z"
     id="path32"
     transform="scale(0.75)" />
  <path
     style="fill:#e59500;fill-opacity:1;stroke-width:0.0883883"
     d="m 542.44205,458.4542 c -1.8401,-7.80577 -2.21237,-16.35508 -1.06047,-24.35375 1.4244,-9.89083 5.4767,-18.87479 12.2289,-27.11149 1.73347,-2.11458 4.35876,-4.68027 6.28551,-6.14281 0.92746,-0.70401 0.88388,-0.68999 0.88388,-0.28432 0,0.34038 -0.0276,0.37178 -1.02081,1.16288 -5.47757,4.36282 -9.98003,10.43339 -13.96376,18.82705 -2.08549,4.39408 -2.7564,6.27577 -3.21448,9.01561 -0.51177,3.06097 -0.66814,7.47428 -0.59971,16.92637 0.0565,7.79984 0.138,9.42125 0.59944,11.92045 0.0975,0.52817 0.15931,0.9783 0.13731,1.00031 -0.022,0.022 -0.14612,-0.41014 -0.27581,-0.9603 z"
     id="path33"
     transform="scale(0.75)" />
  <path
     style="fill:#e59500;fill-opacity:1;stroke-width:0.125"
     d="M 939.8125,373.625 V 339 h -59.72938 c -32.85116,0 -63.4371,-0.0374 -67.96875,-0.0831 l -8.23937,-0.0831 -4.1875,-7.05539 c -4.7295,-7.96859 -6.78303,-11.29385 -9.58958,-15.52832 -5.94291,-8.96654 -13.13418,-18.33097 -21.88613,-28.5 l -1.1296,-1.3125 0.89641,-0.0376 c 0.81652,-0.0342 0.91868,-0.0109 1.1464,0.26183 0.1375,0.16468 1.49289,1.78472 3.01199,3.60008 6.54272,7.81876 12.01308,15.13231 17.66207,23.61317 3.02139,4.53602 4.45713,6.82173 10.63906,16.9375 2.35281,3.85 4.33049,7.05625 4.39485,7.125 0.13221,0.14123 29.06926,0.33305 83.10453,0.55088 18.73437,0.0755 38.40781,0.17209 43.71875,0.21459 l 9.65625,0.0773 V 372.76512 406.75 h 17.375 17.375 v 0.75 0.75 h -18.125 -18.125 z"
     id="path34"
     transform="scale(0.75)" />
</svg>
